# xmcd
#
# Track frame offsets:
#	150
#	24720
#	50107
#	78167
#	98900
#	117457
#	138662
#	163890
#	184520
#	205572
#	232420
#	255852
#
# Disc length: 3684 seconds
#
# Revision: 1
# Processed by: cddbd v1.5.1PL0 Copyright (c) Steve Scherf et al.
# Submitted via: CDex 1.50Beta5
#
DISCID=a50e620c
DTITLE=山本達彦 - VERY BEST OF TATSUHIKO,THE
DYEAR=1989
DGENRE=
TTITLE0=FROM THE NIGHT
TTITLE1=日付のない未来
TTITLE2=SHAKE SHAKE SHAKE
TTITLE3=哀しみの外電(テレグラム)
TTITLE4=FEEL SO BAD
TTITLE5=DANCIN’ ON THE BEAM
TTITLE6=PRESSURE
TTITLE7=WEEKEND BACHELORS
TTITLE8=WONDERFUL NIGHT
TTITLE9=TO BE
TTITLE10=SWEET LIE
TTITLE11=STAY MY LOVE IN YOUR HEART
EXTD=
EXTT0=
EXTT1=
EXTT2=
EXTT3=
EXTT4=
EXTT5=
EXTT6=
EXTT7=
EXTT8=
EXTT9=
EXTT10=
EXTT11=
PLAYORDER=
